<svg width="40" height="40" viewBox="0 0 40 40" fill="none" xmlns="http://www.w3.org/2000/svg">
  <!-- Butterfly Logo for LifeCharter -->
  <path d="M20 35C20 35 12 28 12 20C12 12 16 8 20 8C24 8 28 12 28 20C28 28 20 35 20 35Z" fill="#c9a227"/>
  <path d="M20 8C20 8 8 12 8 22C8 30 16 32 20 35C24 32 32 30 32 22C32 12 20 8 20 8Z" stroke="#1a2b4a" stroke-width="2" fill="none"/>
  <path d="M20 8L20 35" stroke="#1a2b4a" stroke-width="1.5"/>
  <ellipse cx="14" cy="18" rx="5" ry="8" fill="#1a2b4a" opacity="0.8"/>
  <ellipse cx="26" cy="18" rx="5" ry="8" fill="#1a2b4a" opacity="0.8"/>
  <circle cx="20" cy="14" r="2" fill="#c9a227"/>
  <path d="M18 16L16 20M22 16L24 20" stroke="#1a2b4a" stroke-width="1"/>
</svg>